#!OML:ASF F:\VICON\USERDATA\INSTALL\rory3\rory3.ASF
:FULLY-SPECIFIED
:DEGREES
711
root 2.99982 16.7547 -0.0333944 15.3274 5.01041 10.6791
lowerback -7.23001 1.84826 1.23201
upperback -2.16619 2.57129 -6.96315
thorax 2.18687 1.31003 -7.76804
lowerneck -2.28146 14.5067 5.30596
upperneck 47.7705 24.2727 -1.80895
head 20.2443 10.6183 2.32049
rclavicle 9.93923e-016 3.57812e-015
rhumerus -36.9737 3.61823 -92.7815
rradius 42.6438
rwrist -38.8919
rhand -8.47596 -51.1594
rfingers 7.12502
rthumb 17.4508 -80.3961
lclavicle 9.93923e-016 3.57812e-015
lhumerus -27.9502 -19.9437 82.4189
lradius 41.3584
lwrist 73.6368
lhand -37.9924 -12.9787
lfingers 7.12502
lthumb -11.0319 16.7114
rfemur -50.5047 24.1655 -6.15292
rtibia 73.5465
rfoot 3.41218 9.66161
rtoes -42.2441
lfemur -32.0901 -6.63285 -36.127
ltibia 38.1786
lfoot -16.8387 10.6402
ltoes 4.94139
712
root 3.00282 16.7582 -0.0340478 15.379 4.96834 10.6215
lowerback -7.26445 1.85989 1.31689
upperback -2.19046 2.58044 -6.96513
thorax 2.18581 1.31444 -7.81838
lowerneck -2.34713 14.5363 5.28513
upperneck 47.8305 24.3174 -1.76029
head 20.2912 10.6295 2.36552
rclavicle -6.11263e-015 -7.95139e-015
rhumerus -36.9493 3.53116 -92.7493
rradius 42.6592
rwrist -38.6757
rhand -8.65343 -49.6889
rfingers 7.12502
rthumb 17.28 -78.9406
lclavicle -6.11263e-015 -7.95139e-015
lhumerus -27.8452 -20.0819 82.4195
lradius 41.1525
lwrist 73.7871
lhand -38.0489 -13.2203
lfingers 7.12502
lthumb -11.0865 16.4669
rfemur -50.6099 24.1803 -6.16443
rtibia 73.5257
rfoot 3.28891 9.80973
rtoes -42.552
lfemur -32.2434 -6.6252 -36.062
ltibia 38.2555
lfoot -16.8908 10.5383
ltoes 5.77377
713
root 3.00494 16.76 -0.0340337 15.4085 4.91642 10.6277
lowerback -7.21371 1.87882 1.35131
upperback -2.24953 2.60036 -7.00259
thorax 2.10209 1.32178 -7.87911
lowerneck -2.37741 14.5419 5.26901
upperneck 47.9138 24.3021 -1.6579
head 20.327 10.6262 2.4194
rclavicle 1.89839e-014 -1.15295e-014
rhumerus -37.0267 3.45382 -92.7725
rradius 42.7225
rwrist -38.6017
rhand -8.87167 -49.2057
rfingers 7.12502
rthumb 17.07 -78.4757
lclavicle 1.89839e-014 -1.15295e-014
lhumerus -27.8686 -20.1681 82.4209
lradius 41.0191
lwrist 73.832
lhand -37.9234 -13.3959
lfingers 7.12502
lthumb -10.9654 16.2978
rfemur -50.6507 24.1742 -6.2169
rtibia 73.5167
rfoot 3.65895 9.56968
rtoes -41.4868
lfemur -32.3254 -6.64188 -36.0529
ltibia 38.3178
lfoot -17.0565 10.3673
ltoes 7.09837
714
root 3.00521 16.7546 -0.0322057 15.4038 4.9306 10.6742
lowerback -7.25911 1.89 1.32464
upperback -2.21649 2.62124 -7.03606
thorax 2.16537 1.33456 -7.89645
lowerneck -2.47853 14.5222 5.27879
upperneck 47.9972 24.2735 -1.61707
head 20.4042 10.609 2.45079
rclavicle -9.14409e-015 4.8901e-014
rhumerus -36.9804 3.3957 -92.7846
rradius 42.7374
rwrist -38.5536
rhand -8.94709 -49.3866
rfingers 7.12502
rthumb 16.9974 -78.6629
lclavicle -9.14409e-015 4.8901e-014
lhumerus -27.9478 -20.1721 82.4095
lradius 41.1142
lwrist 73.8516
lhand -37.8016 -13.5269
lfingers 7.12502
lthumb -10.8479 16.173
rfemur -50.6227 24.1389 -6.24727
rtibia 73.5515
rfoot 3.87763 9.33789
rtoes -40.8165
lfemur -32.2727 -6.65824 -36.1118
ltibia 38.3563
lfoot -17.0885 10.4319
ltoes 6.45409
715
root 3.00616 16.7471 -0.0313902 15.4326 4.972 10.7282
lowerback -7.37334 1.87058 1.27522
upperback -2.15547 2.60541 -7.05467
thorax 2.28909 1.33047 -7.88624
lowerneck -2.46937 14.5161 5.38038
upperneck 47.9183 24.3058 -1.77828
head 20.4132 10.6212 2.36854
rclavicle -1.57537e-014 9.54166e-015
rhumerus -36.8711 3.44345 -92.8186
rradius 42.7224
rwrist -38.5795
rhand -8.884 -49.7134
rfingers 7.12502
rthumb 17.0581 -78.9845
lclavicle -1.57537e-014 9.54166e-015
lhumerus -27.9404 -20.142 82.361
lradius 41.1876
lwrist 73.9614
lhand -37.7122 -13.7166
lfingers 7.12502
lthumb -10.7616 15.9878
rfemur -50.6459 24.0334 -6.29405
rtibia 73.6066
rfoot 3.76774 9.47065
rtoes -41.1877
lfemur -32.2528 -6.68534 -36.1925
ltibia 38.3628
lfoot -17.0219 10.5692
ltoes 5.49551
716
root 3.00748 16.7435 -0.0309628 15.4532 4.97201 10.762
lowerback -7.41747 1.85905 1.24769
upperback -2.12567 2.59505 -7.06759
thorax 2.34267 1.32698 -7.88405
lowerneck -2.46146 14.5455 5.45525
upperneck 47.866 24.3782 -1.87883
head 20.4225 10.6509 2.32566
rclavicle -2.68359e-015 4.41302e-014
rhumerus -36.7993 3.45295 -92.8258
rradius 42.6872
rwrist -38.5839
rhand -8.59218 -49.845
rfingers 7.12502
rthumb 17.339 -79.0916
lclavicle -2.68359e-015 4.41302e-014
lhumerus -27.8965 -20.1073 82.3217
lradius 41.1726
lwrist 74.0393
lhand -37.4319 -14.0287
lfingers 7.12502
lthumb -10.4913 15.6895
rfemur -50.6611 23.9513 -6.32882
rtibia 73.6357
rfoot 3.67211 9.58101
rtoes -41.5068
lfemur -32.255 -6.72995 -36.2312
ltibia 38.3351
lfoot -17.0508 10.5824
ltoes 5.81932
717
root 3.00992 16.744 -0.0280466 15.4585 4.93094 10.8062
lowerback -7.44031 1.85068 1.20979
upperback -2.08325 2.58945 -7.06982
thorax 2.39733 1.32601 -7.86399
lowerneck -2.58201 14.5925 5.36697
upperneck 47.8512 24.4476 -1.84527
head 20.4208 10.6613 2.37638
rclavicle 5.68524e-014 -3.93594e-014
rhumerus -36.7701 3.45414 -92.8021
rradius 42.7069
rwrist -38.5048
rhand -8.74755 -50.0875
rfingers 7.12502
rthumb 17.1894 -79.3472
lclavicle 5.68524e-014 -3.93594e-014
lhumerus -27.8555 -20.0596 82.3187
lradius 41.2135
lwrist 74.0344
lhand -37.6732 -13.85
lfingers 7.12502
lthumb -10.7241 15.8563
rfemur -50.6428 23.9567 -6.39318
rtibia 73.6366
rfoot 3.69997 9.48183
rtoes -41.2318
lfemur -32.2129 -6.77866 -36.2834
ltibia 38.2949
lfoot -17.0743 10.6536
ltoes 5.90991
718
root 3.01196 16.7451 -0.0278667 15.4953 4.92687 10.8791
lowerback -7.45854 1.82384 1.13424
upperback -2.05229 2.5612 -7.07227
thorax 2.43255 1.31272 -7.8248
lowerneck -2.73556 14.6221 5.22127
upperneck 47.8582 24.4865 -1.77652
head 20.4197 10.6521 2.44831
rclavicle 2.15681e-014 -1.15295e-014
rhumerus -36.7615 3.49542 -92.7904
rradius 42.7808
rwrist -38.4716
rhand -9.22054 -50.4471
rfingers 7.12502
rthumb 16.7341 -79.7458
lclavicle 2.15681e-014 -1.15295e-014
lhumerus -27.7929 -19.9393 82.2974
lradius 41.2842
lwrist 74.0371
lhand -37.706 -13.5631
lfingers 7.12502
lthumb -10.7557 16.1415
rfemur -50.6717 23.9499 -6.50298
rtibia 73.6506
rfoot 3.71179 9.44657
rtoes -41.1039
lfemur -32.2081 -6.81194 -36.3677
ltibia 38.2699
lfoot -17.0412 10.6917
ltoes 5.53761
719
root 3.01187 16.7448 -0.0313022 15.5287 4.97095 10.9187
lowerback -7.41428 1.81355 1.09045
upperback -2.06141 2.54943 -7.08356
thorax 2.39529 1.30571 -7.81376
lowerneck -2.66803 14.5974 5.23344
upperneck 47.7336 24.445 -1.85004
head 20.3295 10.6424 2.38764
rclavicle -4.45775e-014 7.55382e-015
rhumerus -36.7841 3.52754 -92.8093
rradius 42.8639
rwrist -38.6487
rhand -9.28337 -49.8996
rfingers 7.12502
rthumb 16.6737 -79.2035
lclavicle -4.45775e-014 7.55382e-015
lhumerus -27.802 -19.8731 82.2761
lradius 41.3819
lwrist 74.0682
lhand -37.179 -13.8825
lfingers 7.12502
lthumb -10.2474 15.8479
rfemur -50.7151 23.9014 -6.54763
rtibia 73.6794
rfoot 3.69703 9.49154
rtoes -41.2135
lfemur -32.2482 -6.82627 -36.4024
ltibia 38.2404
lfoot -16.9587 10.6474
ltoes 5.28607
720
root 3.01043 16.7416 -0.030522 15.5146 4.97255 10.9337
lowerback -7.34022 1.82532 1.05951
upperback -2.07676 2.56518 -7.09752
thorax 2.3396 1.31217 -7.81095
lowerneck -2.38089 14.5392 5.36534
upperneck 47.3841 24.3697 -2.13158
head 20.0981 10.641 2.17236
rclavicle 1.87355e-014 4.45278e-014
rhumerus -36.838 3.50724 -92.8386
rradius 42.9279
rwrist -38.8162
rhand -9.33707 -49.2622
rfingers 7.12502
rthumb 16.6219 -78.5704
lclavicle 1.87355e-014 4.45278e-014
lhumerus -27.7769 -19.9217 82.2866
lradius 41.379
lwrist 74.0526
lhand -37.4368 -13.8575
lfingers 7.12502
lthumb -10.496 15.8605
rfemur -50.7331 23.873 -6.54274
rtibia 73.7258
rfoot 3.7158 9.51562
rtoes -41.2089
lfemur -32.2458 -6.80041 -36.4176
ltibia 38.2092
lfoot -16.875 10.6452
ltoes 4.96642
721
root 3.01055 16.7411 -0.025982 15.4585 4.94522 10.9719
lowerback -7.31614 1.8358 1.02216
upperback -2.0458 2.58361 -7.11537
thorax 2.36036 1.32247 -7.80687
lowerneck -3.09288 14.6665 4.99537
upperneck 48.1305 24.4718 -1.36139
head 20.5492 10.6236 2.71794
rclavicle -3.4837e-014 6.79844e-014
rhumerus -36.8138 3.40061 -92.8187
rradius 42.8944
rwrist -38.6842
rhand -9.55059 -49.6713
rfingers 7.12502
rthumb 16.4164 -78.9966
lclavicle -3.4837e-014 6.79844e-014
lhumerus -27.6966 -19.9621 82.3042
lradius 41.2919
lwrist 74.0144
lhand -37.8703 -13.6613
lfingers 7.12502
lthumb -10.9142 16.0351
rfemur -50.6849 23.8865 -6.54939
rtibia 73.7602
rfoot 3.39906 9.75379
rtoes -41.9214
lfemur -32.1742 -6.7949 -36.4635
ltibia 38.1851
lfoot -16.8336 10.7127
ltoes 4.61495
722
root 3.0129 16.7437 -0.0236393 15.4672 4.84286 11.0038
lowerback -7.3785 1.8646 0.987075
upperback -2.03083 2.62777 -7.12717
thorax 2.41619 1.34602 -7.79309
lowerneck -2.92501 14.6463 4.97861
upperneck 47.9238 24.4341 -1.47308
head 20.3758 10.6188 2.62311
rclavicle -1.94809e-014 2.46493e-014
rhumerus -36.8179 3.37046 -92.7836
rradius 42.9148
rwrist -38.5723
rhand -9.56454 -50.264
rfingers 7.12502
rthumb 16.403 -79.5905
lclavicle -1.94809e-014 2.46493e-014
lhumerus -27.8169 -19.9116 82.3209
lradius 41.4441
lwrist 73.9852
lhand -37.8907 -13.681
lfingers 7.12502
lthumb -10.9339 16.0143
rfemur -50.7322 23.9706 -6.64332
rtibia 73.7624
rfoot 3.09282 9.97253
rtoes -42.4218
lfemur -32.1668 -6.76622 -36.5152
ltibia 38.1365
lfoot -16.8075 10.775
ltoes 4.67648
723
root 3.01021 16.7422 -0.0208782 15.4982 4.67231 10.9923
lowerback -7.50727 1.91998 0.902287
upperback -2.00856 2.71292 -7.11776
thorax 2.51926 1.39075 -7.72108
lowerneck -2.99328 14.6664 4.80792
upperneck 47.9396 24.4032 -1.28772
head 20.3142 10.6004 2.72375
rclavicle 2.78299e-015 9.14409e-015
rhumerus -36.7639 3.45988 -92.7946
rradius 42.9183
rwrist -38.8397
rhand -9.47048 -50.079
rfingers 7.12502
rthumb 16.4935 -79.3979
lclavicle 2.78299e-015 9.14409e-015
lhumerus -27.9241 -19.8972 82.3286
lradius 41.6327
lwrist 73.9663
lhand -38.0665 -13.6065
lfingers 7.12502
lthumb -11.1034 16.0798
rfemur -50.892 24.1076 -6.7266
rtibia 73.7662
rfoot 3.18453 9.95708
rtoes -42.2501
lfemur -32.1725 -6.66896 -36.509
ltibia 38.0078
lfoot -16.7655 10.7997
ltoes 4.94502
